<?xml version="1.0" encoding="utf-8"?>
<!-- Generator: Adobe Illustrator 26.5.0, SVG Export Plug-In . SVG Version: 6.00 Build 0)  -->
<svg version="1.1" id="Camada_1" xmlns="http://www.w3.org/2000/svg" xmlns:xlink="http://www.w3.org/1999/xlink" x="0px" y="0px"
	 viewBox="0 0 240 240" style="enable-background:new 0 0 240 240;" xml:space="preserve">
<style type="text/css">
	.st0{fill:white;}
</style>
<path class="st0" d="M235.18034,29.14549l-85.13074,85.13074c-1.15114,1.15114-2.5591,2.01257-4.10809,2.51343l-15.61316,5.04848
	l-8.283,2.67834c-4.04182,1.30693-7.86426-2.51364-6.55928-6.55611l2.67575-8.28876l5.04852-15.61312
	c0.50087-1.54898,1.36229-2.95694,2.51343-4.10807l85.13074-85.13074c6.42621-6.4262,16.84514-6.4262,23.27135,0l1.05449,1.05449
	C241.60655,12.30035,241.60655,22.71928,235.18034,29.14549z"/>
<path class="st0" d="M111.11678,128.18332c-16.53281-11.9464-56.20886-40.05074-76.17789-36.6893
	c-0.00011,0.00038-0.72509,0.14238-0.72509,0.14238c-0.1197,0.03719-0.08897,0.04565,0.02116,0.00394
	c0.48083-0.16232,1.24989-1.05201,1.38511-1.63291c0.24369-0.8545,0.0794-1.04478,0.16338-0.90333
	c2.15899,4.23766,6.60925,8.24443,10.18743,11.78432c3.80839,3.65136,7.81215,7.22482,11.87156,10.75239
	c28.89283,24.9935,59.56625,48.15204,86.25902,75.70761c7.41324,8.16742,19.32622,20.33823,19.16434,32.21219
	c-0.02599,5.5036-4.14978,10.63271-8.87982,12.46004c-15.45151,6.51544-31.95087-1.98808-44.87067-9.92921
	c-18.84272-11.98849-34.95795-26.95377-51.9514-40.86734c-7.83635-6.33569-16.30386-13.5528-25.09653-17.78609
	c-2.24724-1.04179-4.08644-1.565-5.51452-1.53549c-0.28788,0.02797-0.50527,0.08601-0.79683,0.21355
	c-3.26799,1.35748-2.11197,7.90904-1.76373,11.15627c2.72425,18.51994,13.58253,42.70576,0.31599,59.62978
	c-2.17073,2.68961-4.90079,4.79491-7.71597,6.41304c-2.4622,1.41525-5.60548,0.56654-7.02073-1.89566
	c-1.39981-2.42964-0.5811-5.52748,1.79632-6.9631c3.72702-2.34792,6.10334-5.54083,7.16143-9.64154
	c5.23171-19.23715-16.33473-51.33234-3.7561-66.48021c10.85997-12.48666,27.81738-1.19092,37.90816,5.95567
	c13.41156,9.62057,25.76721,20.6819,38.48919,30.84093c12.74488,9.81999,41.92117,34.65562,57.51166,27.47482
	c-0.16331,0.17096-0.24207,0.56564-0.19882,0.37936c-0.47867-3.62505-2.914-6.95247-5.12683-10.15767
	c-2.9142-4.01375-6.35532-7.95967-9.93555-11.80688c-26.22636-27.41278-56.10275-50.51659-83.92041-76.55951
	c-6.07379-5.70602-12.1843-11.47002-17.61101-17.94124c-3.34335-4.35213-8.07311-9.42639-6.47412-15.54784
	c0.9151-3.19251,4.26308-5.15088,7.31002-5.37318c7.72291-1.20454,15.33595,1.14466,22.37783,4.02722
	c11.68063,4.902,22.31339,11.91,32.29261,19.17748c8.86592,6.53329,17.3046,13.50012,25.3594,20.97763
	C114.58268,127.1703,112.70686,129.37141,111.11678,128.18332L111.11678,128.18332z"/>
</svg>
