<svg xmlns="http://www.w3.org/2000/svg" xmlns:xlink="http://www.w3.org/1999/xlink" version="1.1" id="Camada_2" x="0px" y="0px" viewBox="0 0 1080 1080" style="enable-background:new 0 0 1080 1080;" xml:space="preserve"><link xmlns="" type="text/css" rel="stylesheet" id="dark-mode-custom-link"/><link xmlns="" type="text/css" rel="stylesheet" id="dark-mode-general-link"/><style xmlns="" lang="en" type="text/css" id="dark-mode-custom-style"/><style xmlns="" lang="en" type="text/css" id="dark-mode-native-style"/><style xmlns="" lang="en" type="text/css" id="dark-mode-native-sheet"/>
<path fill="white" d="M1045.5,483.6h-32.7C987.1,265.7,814.3,92.9,596.4,67.2V34.5c0-13.6-11-24.6-24.6-24.6h-63.6c-13.6,0-24.6,11-24.6,24.6  v32.7C265.7,92.9,92.9,265.7,67.2,483.6H34.5c-13.6,0-24.6,11-24.6,24.6v63.6c0,13.6,11,24.6,24.6,24.6h32.7  c25.7,217.9,198.5,390.7,416.4,416.4v32.7c0,13.6,11,24.6,24.6,24.6h63.6c13.6,0,24.6-11,24.6-24.6v-32.7  c217.9-25.7,390.7-198.5,416.4-416.4h32.7c13.6,0,24.6-11,24.6-24.6v-63.6C1070.1,494.6,1059.1,483.6,1045.5,483.6z M774.4,400.7  L400.7,774.4c-16.8,16.8-44.2,16.8-60.9,0l-34.2-34.2c-16.8-16.8-16.8-44.2,0-60.9l373.7-373.7c16.8-16.8,44.2-16.8,60.9,0  l34.2,34.2C791.2,356.5,791.2,384,774.4,400.7z"/>
</svg>