<svg xmlns="http://www.w3.org/2000/svg" xmlns:xlink="http://www.w3.org/1999/xlink" version="1.1" id="Camada_2" x="0px" y="0px" viewBox="0 0 1080 1080" style="enable-background:new 0 0 1080 1080;" xml:space="preserve"><link xmlns="" type="text/css" rel="stylesheet" id="dark-mode-custom-link"/><link xmlns="" type="text/css" rel="stylesheet" id="dark-mode-general-link"/><style xmlns="" lang="en" type="text/css" id="dark-mode-custom-style"/><style xmlns="" lang="en" type="text/css" id="dark-mode-native-style"/><style xmlns="" lang="en" type="text/css" id="dark-mode-native-sheet"/>
<path fill="white" d="M874.7,0H205.3c-34.8,0-63.2,28.5-63.2,63.2v953.5c0,34.8,28.5,63.2,63.2,63.2h669.4c34.8,0,63.2-28.5,63.2-63.2V63.2  C937.9,28.5,909.5,0,874.7,0z M540,607.3c0,15.7-12.8,28.5-28.5,28.5H276.8c-15.7,0-28.5-12.8-28.5-28.5v-35.1  c0-15.7,12.8-28.5,28.5-28.5h234.7c15.7,0,28.5,12.8,28.5,28.5V607.3z M831.7,431.7c0,15.7-12.8,28.5-28.5,28.5H276.8  c-15.7,0-28.5-12.8-28.5-28.5v-35.1c0-15.7,12.8-28.5,28.5-28.5h526.4c15.7,0,28.5,12.8,28.5,28.5V431.7z M831.7,256.1  c0,15.7-12.8,28.5-28.5,28.5H276.8c-15.7,0-28.5-12.8-28.5-28.5V221c0-15.7,12.8-28.5,28.5-28.5h526.4c15.7,0,28.5,12.8,28.5,28.5  V256.1z"/>
</svg>