<?xml version="1.0" encoding="UTF-8"?>
<svg id="Layer_1" data-name="Layer 1" xmlns="http://www.w3.org/2000/svg" viewBox="0 0 500 500">
  <path d="m160.57,218.98c-16.94-46.98-58.56-108.46,19.6-133.53,42.84-13.74,89.37-11.54,129.49-3.89,61.34,11.68,57.16,85.61,31.16,134.93l-24.35-4.47c.63-1.64,1.51-3.96,2.48-6.78,8.39-24.15,25.08-58.02,12.33-81.26-14.8-31.24-46.04-27.13-81.81-26.31-30.33.7-73.66-4.28-89.47,23.31-18.9,32.97,13.37,75.8,14.11,78.1l3.22,4.25-16.76,15.66Z" style="fill: #fff;"/>
  <path d="m370.11,293.32c0,66.94,2.49,67.46-118.72,67.46s-123.7-.51-123.7-67.46c0-51.68,35.92-86.3,39.92-89.91,5.74-5.2,37.06-32.53,81.3-31.3,56.09,1.55,121.21,48.67,121.21,121.21Z" style="fill: #fff;"/>
  <rect x="18.14" y="365.74" width="463.72" height="15.35" transform="translate(19.98 -12.63) rotate(3.01)" style="fill: #fff;"/>
  <path d="m289.12,383.16c-1.22,23.13-20.95,40.89-44.08,39.67s-40.89-20.95-39.67-44.08" style="fill: #fff;"/>
</svg>